<?xml version="1.0" encoding="UTF-8"?>
<svg width="512" height="512" viewBox="0 0 512 512" fill="none" xmlns="http://www.w3.org/2000/svg">
  <path d="M256 32C132.3 32 32 132.3 32 256C32 379.7 132.3 480 256 480H384V416H256C167.6 416 96 344.4 96 256C96 167.6 167.6 96 256 96C344.4 96 416 167.6 416 256V288H480V256C480 132.3 379.7 32 256 32Z" fill="currentColor"/>
  <path d="M352 352H416V416H352V352Z" fill="currentColor"/>
  <path d="M288 288H352V352H288V288Z" fill="currentColor"/>
  <path d="M224 224H288V288H224V224Z" fill="currentColor"/>
</svg> 